<?xml version="1.0" encoding="UTF-8" ?>
<svg version="1.1" width="32" height="32" xmlns="http://www.w3.org/2000/svg" shape-rendering="crispEdges">
<rect x="14" y="1" width="1" height="1" fill="#ffffff" />
<rect x="15" y="1" width="1" height="1" fill="#ffffff" />
<rect x="16" y="1" width="1" height="1" fill="#ffffff" />
<rect x="17" y="1" width="1" height="1" fill="#ffffff" />
<rect x="13" y="2" width="1" height="1" fill="#ffffff" />
<rect x="16" y="2" width="1" height="1" fill="#ffffff" />
<rect x="17" y="2" width="1" height="1" fill="#ffffff" />
<rect x="18" y="2" width="1" height="1" fill="#ffffff" />
<rect x="3" y="3" width="1" height="1" fill="#ffffff" />
<rect x="4" y="3" width="1" height="1" fill="#ffffff" />
<rect x="12" y="3" width="1" height="1" fill="#ffffff" />
<rect x="14" y="3" width="1" height="1" fill="#ffffff" />
<rect x="15" y="3" width="1" height="1" fill="#ffffff" />
<rect x="16" y="3" width="1" height="1" fill="#ffffff" />
<rect x="17" y="3" width="1" height="1" fill="#ffffff" />
<rect x="18" y="3" width="1" height="1" fill="#ffffff" />
<rect x="19" y="3" width="1" height="1" fill="#ffffff" />
<rect x="27" y="3" width="1" height="1" fill="#ffffff" />
<rect x="28" y="3" width="1" height="1" fill="#ffffff" />
<rect x="5" y="4" width="1" height="1" fill="#ffffff" />
<rect x="6" y="4" width="1" height="1" fill="#ffffff" />
<rect x="7" y="4" width="1" height="1" fill="#ffffff" />
<rect x="11" y="4" width="1" height="1" fill="#ffffff" />
<rect x="12" y="4" width="1" height="1" fill="#ffffff" />
<rect x="13" y="4" width="1" height="1" fill="#ffffff" />
<rect x="14" y="4" width="1" height="1" fill="#ffffff" />
<rect x="15" y="4" width="1" height="1" fill="#ffffff" />
<rect x="16" y="4" width="1" height="1" fill="#ffffff" />
<rect x="17" y="4" width="1" height="1" fill="#ffffff" />
<rect x="18" y="4" width="1" height="1" fill="#ffffff" />
<rect x="19" y="4" width="1" height="1" fill="#ffffff" />
<rect x="20" y="4" width="1" height="1" fill="#ffffff" />
<rect x="24" y="4" width="1" height="1" fill="#ffffff" />
<rect x="25" y="4" width="1" height="1" fill="#ffffff" />
<rect x="26" y="4" width="1" height="1" fill="#ffffff" />
<rect x="8" y="5" width="1" height="1" fill="#ffffff" />
<rect x="9" y="5" width="1" height="1" fill="#ffffff" />
<rect x="12" y="5" width="1" height="1" fill="#ffffff" />
<rect x="14" y="5" width="1" height="1" fill="#ffffff" />
<rect x="17" y="5" width="1" height="1" fill="#ffffff" />
<rect x="19" y="5" width="1" height="1" fill="#ffffff" />
<rect x="22" y="5" width="1" height="1" fill="#ffffff" />
<rect x="23" y="5" width="1" height="1" fill="#ffffff" />
<rect x="12" y="6" width="1" height="1" fill="#ffffff" />
<rect x="14" y="6" width="1" height="1" fill="#ffffff" />
<rect x="17" y="6" width="1" height="1" fill="#ffffff" />
<rect x="19" y="6" width="1" height="1" fill="#ffffff" />
<rect x="8" y="7" width="1" height="1" fill="#ffffff" />
<rect x="9" y="7" width="1" height="1" fill="#ffffff" />
<rect x="12" y="7" width="1" height="1" fill="#ffffff" />
<rect x="14" y="7" width="1" height="1" fill="#ffffff" />
<rect x="17" y="7" width="1" height="1" fill="#ffffff" />
<rect x="19" y="7" width="1" height="1" fill="#ffffff" />
<rect x="22" y="7" width="1" height="1" fill="#ffffff" />
<rect x="23" y="7" width="1" height="1" fill="#ffffff" />
<rect x="5" y="8" width="1" height="1" fill="#ffffff" />
<rect x="6" y="8" width="1" height="1" fill="#ffffff" />
<rect x="7" y="8" width="1" height="1" fill="#ffffff" />
<rect x="11" y="8" width="1" height="1" fill="#ffffff" />
<rect x="12" y="8" width="1" height="1" fill="#ffffff" />
<rect x="13" y="8" width="1" height="1" fill="#ffffff" />
<rect x="14" y="8" width="1" height="1" fill="#ffffff" />
<rect x="15" y="8" width="1" height="1" fill="#ffffff" />
<rect x="16" y="8" width="1" height="1" fill="#ffffff" />
<rect x="17" y="8" width="1" height="1" fill="#ffffff" />
<rect x="18" y="8" width="1" height="1" fill="#ffffff" />
<rect x="19" y="8" width="1" height="1" fill="#ffffff" />
<rect x="20" y="8" width="1" height="1" fill="#ffffff" />
<rect x="24" y="8" width="1" height="1" fill="#ffffff" />
<rect x="25" y="8" width="1" height="1" fill="#ffffff" />
<rect x="26" y="8" width="1" height="1" fill="#ffffff" />
<rect x="3" y="9" width="1" height="1" fill="#ffffff" />
<rect x="4" y="9" width="1" height="1" fill="#ffffff" />
<rect x="12" y="9" width="1" height="1" fill="#ffffff" />
<rect x="13" y="9" width="1" height="1" fill="#ffffff" />
<rect x="14" y="9" width="1" height="1" fill="#ffffff" />
<rect x="15" y="9" width="1" height="1" fill="#ffffff" />
<rect x="16" y="9" width="1" height="1" fill="#ffffff" />
<rect x="17" y="9" width="1" height="1" fill="#ffffff" />
<rect x="18" y="9" width="1" height="1" fill="#ffffff" />
<rect x="19" y="9" width="1" height="1" fill="#ffffff" />
<rect x="27" y="9" width="1" height="1" fill="#ffffff" />
<rect x="28" y="9" width="1" height="1" fill="#ffffff" />
<rect x="12" y="10" width="1" height="1" fill="#ffffff" />
<rect x="13" y="10" width="1" height="1" fill="#ffffff" />
<rect x="14" y="10" width="1" height="1" fill="#ffffff" />
<rect x="15" y="10" width="1" height="1" fill="#ffffff" />
<rect x="16" y="10" width="1" height="1" fill="#ffffff" />
<rect x="17" y="10" width="1" height="1" fill="#ffffff" />
<rect x="18" y="10" width="1" height="1" fill="#ffffff" />
<rect x="19" y="10" width="1" height="1" fill="#ffffff" />
<rect x="12" y="11" width="1" height="1" fill="#ffffff" />
<rect x="13" y="11" width="1" height="1" fill="#ffffff" />
<rect x="14" y="11" width="1" height="1" fill="#ffffff" />
<rect x="15" y="11" width="1" height="1" fill="#ffffff" />
<rect x="16" y="11" width="1" height="1" fill="#ffffff" />
<rect x="17" y="11" width="1" height="1" fill="#ffffff" />
<rect x="18" y="11" width="1" height="1" fill="#ffffff" />
<rect x="19" y="11" width="1" height="1" fill="#ffffff" />
<rect x="12" y="12" width="1" height="1" fill="#ffffff" />
<rect x="19" y="12" width="1" height="1" fill="#ffffff" />
<rect x="12" y="13" width="1" height="1" fill="#ffffff" />
<rect x="19" y="13" width="1" height="1" fill="#ffffff" />
<rect x="11" y="14" width="1" height="1" fill="#ffffff" />
<rect x="20" y="14" width="1" height="1" fill="#ffffff" />
<rect x="11" y="15" width="1" height="1" fill="#ffffff" />
<rect x="12" y="15" width="1" height="1" fill="#ffffff" />
<rect x="13" y="15" width="1" height="1" fill="#ffffff" />
<rect x="14" y="15" width="1" height="1" fill="#ffffff" />
<rect x="15" y="15" width="1" height="1" fill="#ffffff" />
<rect x="16" y="15" width="1" height="1" fill="#ffffff" />
<rect x="17" y="15" width="1" height="1" fill="#ffffff" />
<rect x="18" y="15" width="1" height="1" fill="#ffffff" />
<rect x="19" y="15" width="1" height="1" fill="#ffffff" />
<rect x="20" y="15" width="1" height="1" fill="#ffffff" />
<rect x="11" y="16" width="1" height="1" fill="#ffffff" />
<rect x="12" y="16" width="1" height="1" fill="#ffffff" />
<rect x="13" y="16" width="1" height="1" fill="#ffffff" />
<rect x="14" y="16" width="1" height="1" fill="#ffffff" />
<rect x="15" y="16" width="1" height="1" fill="#ffffff" />
<rect x="16" y="16" width="1" height="1" fill="#ffffff" />
<rect x="17" y="16" width="1" height="1" fill="#ffffff" />
<rect x="18" y="16" width="1" height="1" fill="#ffffff" />
<rect x="19" y="16" width="1" height="1" fill="#ffffff" />
<rect x="20" y="16" width="1" height="1" fill="#ffffff" />
<rect x="11" y="17" width="1" height="1" fill="#ffffff" />
<rect x="12" y="17" width="1" height="1" fill="#ffffff" />
<rect x="13" y="17" width="1" height="1" fill="#ffffff" />
<rect x="14" y="17" width="1" height="1" fill="#ffffff" />
<rect x="15" y="17" width="1" height="1" fill="#ffffff" />
<rect x="16" y="17" width="1" height="1" fill="#ffffff" />
<rect x="17" y="17" width="1" height="1" fill="#ffffff" />
<rect x="18" y="17" width="1" height="1" fill="#ffffff" />
<rect x="19" y="17" width="1" height="1" fill="#ffffff" />
<rect x="20" y="17" width="1" height="1" fill="#ffffff" />
<rect x="11" y="18" width="1" height="1" fill="#ffffff" />
<rect x="20" y="18" width="1" height="1" fill="#ffffff" />
<rect x="11" y="19" width="1" height="1" fill="#ffffff" />
<rect x="20" y="19" width="1" height="1" fill="#ffffff" />
<rect x="10" y="20" width="1" height="1" fill="#ffffff" />
<rect x="21" y="20" width="1" height="1" fill="#ffffff" />
<rect x="10" y="21" width="1" height="1" fill="#ffffff" />
<rect x="11" y="21" width="1" height="1" fill="#ffffff" />
<rect x="12" y="21" width="1" height="1" fill="#ffffff" />
<rect x="13" y="21" width="1" height="1" fill="#ffffff" />
<rect x="14" y="21" width="1" height="1" fill="#ffffff" />
<rect x="15" y="21" width="1" height="1" fill="#ffffff" />
<rect x="16" y="21" width="1" height="1" fill="#ffffff" />
<rect x="17" y="21" width="1" height="1" fill="#ffffff" />
<rect x="18" y="21" width="1" height="1" fill="#ffffff" />
<rect x="19" y="21" width="1" height="1" fill="#ffffff" />
<rect x="20" y="21" width="1" height="1" fill="#ffffff" />
<rect x="21" y="21" width="1" height="1" fill="#ffffff" />
<rect x="10" y="22" width="1" height="1" fill="#ffffff" />
<rect x="11" y="22" width="1" height="1" fill="#ffffff" />
<rect x="12" y="22" width="1" height="1" fill="#ffffff" />
<rect x="13" y="22" width="1" height="1" fill="#ffffff" />
<rect x="14" y="22" width="1" height="1" fill="#ffffff" />
<rect x="17" y="22" width="1" height="1" fill="#ffffff" />
<rect x="18" y="22" width="1" height="1" fill="#ffffff" />
<rect x="19" y="22" width="1" height="1" fill="#ffffff" />
<rect x="20" y="22" width="1" height="1" fill="#ffffff" />
<rect x="21" y="22" width="1" height="1" fill="#ffffff" />
<rect x="10" y="23" width="1" height="1" fill="#ffffff" />
<rect x="11" y="23" width="1" height="1" fill="#ffffff" />
<rect x="12" y="23" width="1" height="1" fill="#ffffff" />
<rect x="13" y="23" width="1" height="1" fill="#ffffff" />
<rect x="18" y="23" width="1" height="1" fill="#ffffff" />
<rect x="19" y="23" width="1" height="1" fill="#ffffff" />
<rect x="20" y="23" width="1" height="1" fill="#ffffff" />
<rect x="21" y="23" width="1" height="1" fill="#ffffff" />
<rect x="10" y="24" width="1" height="1" fill="#ffffff" />
<rect x="13" y="24" width="1" height="1" fill="#ffffff" />
<rect x="18" y="24" width="1" height="1" fill="#ffffff" />
<rect x="21" y="24" width="1" height="1" fill="#ffffff" />
<rect x="10" y="25" width="1" height="1" fill="#ffffff" />
<rect x="13" y="25" width="1" height="1" fill="#ffffff" />
<rect x="18" y="25" width="1" height="1" fill="#ffffff" />
<rect x="21" y="25" width="1" height="1" fill="#ffffff" />
<rect x="10" y="26" width="1" height="1" fill="#ffffff" />
<rect x="11" y="26" width="1" height="1" fill="#ffffff" />
<rect x="12" y="26" width="1" height="1" fill="#ffffff" />
<rect x="13" y="26" width="1" height="1" fill="#ffffff" />
<rect x="14" y="26" width="1" height="1" fill="#ffffff" />
<rect x="15" y="26" width="1" height="1" fill="#ffffff" />
<rect x="16" y="26" width="1" height="1" fill="#ffffff" />
<rect x="17" y="26" width="1" height="1" fill="#ffffff" />
<rect x="18" y="26" width="1" height="1" fill="#ffffff" />
<rect x="19" y="26" width="1" height="1" fill="#ffffff" />
<rect x="20" y="26" width="1" height="1" fill="#ffffff" />
<rect x="21" y="26" width="1" height="1" fill="#ffffff" />
<rect x="9" y="27" width="1" height="1" fill="#ffffff" />
<rect x="10" y="27" width="1" height="1" fill="#ffffff" />
<rect x="11" y="27" width="1" height="1" fill="#ffffff" />
<rect x="12" y="27" width="1" height="1" fill="#ffffff" />
<rect x="13" y="27" width="1" height="1" fill="#ffffff" />
<rect x="14" y="27" width="1" height="1" fill="#ffffff" />
<rect x="15" y="27" width="1" height="1" fill="#ffffff" />
<rect x="16" y="27" width="1" height="1" fill="#ffffff" />
<rect x="17" y="27" width="1" height="1" fill="#ffffff" />
<rect x="18" y="27" width="1" height="1" fill="#ffffff" />
<rect x="19" y="27" width="1" height="1" fill="#ffffff" />
<rect x="20" y="27" width="1" height="1" fill="#ffffff" />
<rect x="21" y="27" width="1" height="1" fill="#ffffff" />
<rect x="22" y="27" width="1" height="1" fill="#ffffff" />
<rect x="8" y="29" width="1" height="1" fill="#ffffff" />
<rect x="9" y="29" width="1" height="1" fill="#ffffff" />
<rect x="10" y="29" width="1" height="1" fill="#ffffff" />
<rect x="11" y="29" width="1" height="1" fill="#ffffff" />
<rect x="12" y="29" width="1" height="1" fill="#ffffff" />
<rect x="13" y="29" width="1" height="1" fill="#ffffff" />
<rect x="14" y="29" width="1" height="1" fill="#ffffff" />
<rect x="15" y="29" width="1" height="1" fill="#ffffff" />
<rect x="16" y="29" width="1" height="1" fill="#ffffff" />
<rect x="17" y="29" width="1" height="1" fill="#ffffff" />
<rect x="18" y="29" width="1" height="1" fill="#ffffff" />
<rect x="19" y="29" width="1" height="1" fill="#ffffff" />
<rect x="20" y="29" width="1" height="1" fill="#ffffff" />
<rect x="21" y="29" width="1" height="1" fill="#ffffff" />
<rect x="22" y="29" width="1" height="1" fill="#ffffff" />
<rect x="23" y="29" width="1" height="1" fill="#ffffff" />
<rect x="7" y="30" width="1" height="1" fill="#ffffff" />
<rect x="8" y="30" width="1" height="1" fill="#ffffff" />
<rect x="9" y="30" width="1" height="1" fill="#ffffff" />
<rect x="10" y="30" width="1" height="1" fill="#ffffff" />
<rect x="11" y="30" width="1" height="1" fill="#ffffff" />
<rect x="12" y="30" width="1" height="1" fill="#ffffff" />
<rect x="13" y="30" width="1" height="1" fill="#ffffff" />
<rect x="14" y="30" width="1" height="1" fill="#ffffff" />
<rect x="15" y="30" width="1" height="1" fill="#ffffff" />
<rect x="16" y="30" width="1" height="1" fill="#ffffff" />
<rect x="17" y="30" width="1" height="1" fill="#ffffff" />
<rect x="18" y="30" width="1" height="1" fill="#ffffff" />
<rect x="19" y="30" width="1" height="1" fill="#ffffff" />
<rect x="20" y="30" width="1" height="1" fill="#ffffff" />
<rect x="21" y="30" width="1" height="1" fill="#ffffff" />
<rect x="22" y="30" width="1" height="1" fill="#ffffff" />
<rect x="23" y="30" width="1" height="1" fill="#ffffff" />
<rect x="24" y="30" width="1" height="1" fill="#ffffff" />
</svg>